<svg xmlns="http://www.w3.org/2000/svg" viewBox="0 0 720 380" width="720" height="380" role="img" aria-labelledby="t d">
  <title id="t">RSS vs live Unix sessions</title>
  <desc id="d">1→2.2 MB, 8→3.6, 32→8.3, 64→15.2, 128→28.4. Scaled 8000 conns ≈ 816 MB.</desc>
  <rect width="720" height="380" rx="12" fill="#f8fafc"/>
  <text x="28" y="36" font-family="ui-sans-serif, system-ui, -apple-system, Segoe UI, sans-serif" font-size="16" font-weight="650" fill="#0f172a">RSS vs live connections</text>
  <text x="28" y="56" font-family="ui-sans-serif, system-ui, -apple-system, Segoe UI, sans-serif" font-size="11" fill="#64748b">held sessions, then 64 B req/resp · baseline 1.8 MB · sizeof(Session)=36 000 B (16 KiB corking buffers)</text>
  <line x1="88" y1="80" x2="88" y2="300" stroke="#cbd5e1" stroke-width="1"/>
  <line x1="88" y1="300" x2="680" y2="300" stroke="#cbd5e1" stroke-width="1"/>
  <g font-family="ui-sans-serif, system-ui, -apple-system, Segoe UI, sans-serif" font-size="10" fill="#94a3b8">
    <line x1="88" y1="300" x2="680" y2="300" stroke="#e2e8f0"/>
    <text x="78" y="304" text-anchor="end">0</text>
    <line x1="88" y1="245" x2="680" y2="245" stroke="#e2e8f0"/>
    <text x="78" y="249" text-anchor="end">8</text>
    <line x1="88" y1="190" x2="680" y2="190" stroke="#e2e8f0"/>
    <text x="78" y="194" text-anchor="end">16</text>
    <line x1="88" y1="135" x2="680" y2="135" stroke="#e2e8f0"/>
    <text x="78" y="139" text-anchor="end">24</text>
    <line x1="88" y1="80" x2="680" y2="80" stroke="#e2e8f0"/>
    <text x="78" y="84" text-anchor="end">32</text>
    <text x="40" y="190" text-anchor="middle" transform="rotate(-90 40 190)" fill="#64748b" font-size="11">RSS MB</text>
  </g>
  <g font-family="ui-sans-serif, system-ui, -apple-system, Segoe UI, sans-serif" font-size="10" fill="#94a3b8">
    <text x="92" y="318" text-anchor="middle">1</text>
    <text x="123" y="318" text-anchor="middle">8</text>
    <text x="228" y="318" text-anchor="middle">32</text>
    <text x="368" y="318" text-anchor="middle">64</text>
    <text x="648" y="318" text-anchor="middle">128</text>
    <text x="384" y="338" text-anchor="middle" fill="#64748b" font-size="11">live connections (client+server in one process)</text>
  </g>
  <polyline fill="none" stroke="#0f766e" stroke-width="2.5" stroke-linejoin="round" stroke-linecap="round"
    points="92.4,284.9 123,275.3 228,242.9 368,195.5 648,104.8"/>
  <polygon fill="#0f766e" fill-opacity="0.12"
    points="92.4,300 92.4,284.9 123,275.3 228,242.9 368,195.5 648,104.8 648,300"/>
  <g fill="#0f766e">
    <circle cx="92.4" cy="284.9" r="4.5"/>
    <circle cx="123" cy="275.3" r="4.5"/>
    <circle cx="228" cy="242.9" r="4.5"/>
    <circle cx="368" cy="195.5" r="4.5"/>
    <circle cx="648" cy="104.8" r="4.5"/>
  </g>
  <g font-family="ui-sans-serif, system-ui, -apple-system, Segoe UI, sans-serif" font-size="11" fill="#0f766e" font-weight="650">
    <text x="102" y="280">2.2</text>
    <text x="133" y="271">3.6</text>
    <text x="238" y="238">8.3</text>
    <text x="378" y="191">15.2</text>
    <text x="638" y="92" text-anchor="end">28.4 MB</text>
  </g>
  <text x="28" y="364" font-family="ui-sans-serif, system-ui, -apple-system, Segoe UI, sans-serif" font-size="11" fill="#64748b">~107 KB/conn at 128 (16 KiB buffers + thread stacks). 8000 conns scaled ≈ 816 MB RSS.</text>
</svg>
